<?xml version="1.0" encoding="utf-8"?>
<svg width="112" height="36" viewBox="0 0 112 36" fill="none" xmlns="http://www.w3.org/2000/svg">
  <g>
    <path d="M14.391 12.177C14.391 7.911 11.88 4.698 7.992 4.698C6.264 4.698 4.806 5.427 3.753 6.831L3.753 0L0 0L0 19.386L3.456 19.386L3.456 17.307C4.563 18.819 6.129 19.656 7.992 19.656C11.88 19.656 14.391 16.389 14.391 12.177ZM10.53 12.177C10.53 14.877 8.991 16.308 7.155 16.308C5.292 16.308 3.78 14.85 3.78 12.123C3.78 9.396 5.346 8.019 7.155 8.019C8.991 8.019 10.53 9.423 10.53 12.177ZM19.2259 19.386L19.2259 0L15.4459 0L15.4459 19.386L19.2259 19.386ZM29.8274 19.386L32.8784 19.386L32.8784 10.314C32.8784 6.777 30.6644 4.698 26.8844 4.698C23.4014 4.698 20.9984 6.858 20.7824 10.179L24.1574 10.179C24.2924 8.559 25.2644 7.614 26.8844 7.614C28.4504 7.614 29.3684 8.559 29.3684 10.179L29.3684 11.043C28.4774 10.935 27.7754 10.881 26.9654 10.881C22.7534 10.881 20.4854 12.393 20.4854 15.201C20.4854 17.901 22.4834 19.656 25.4804 19.656C27.4514 19.656 28.8824 18.954 29.8274 17.604L29.8274 19.386ZM24.0224 15.093C24.0224 13.797 25.0754 13.122 27.2084 13.122C27.8564 13.122 28.4774 13.176 29.3684 13.311L29.3684 14.337C29.3684 16.011 28.2074 17.064 26.2904 17.064C24.8864 17.064 24.0224 16.308 24.0224 15.093ZM38.5155 11.529C38.5155 9.207 39.7845 8.019 41.2695 8.019C42.9705 8.019 43.8075 9.207 43.8075 11.34L43.8075 19.386L47.5335 19.386L47.5335 10.071C47.5335 6.588 45.5355 4.698 42.6465 4.698C40.7565 4.698 39.2715 5.589 38.2185 7.02L38.2185 4.968L34.7625 4.968L34.7625 19.386L38.5155 19.386L38.5155 11.529ZM53.1704 19.386L53.1704 12.69L58.6784 19.386L63.4574 19.386L56.7884 11.88L62.7554 4.968L58.4354 4.968L53.1704 11.07L53.1704 0L49.4174 0L49.4174 19.386L53.1704 19.386ZM69.31 19.656C73.495 19.656 76.627 16.362 76.627 12.177C76.627 7.965 73.495 4.698 69.31 4.698C65.1255 4.698 61.9935 7.965 61.9935 12.177C61.9935 16.362 65.1255 19.656 69.31 19.656ZM69.31 16.335C67.447 16.335 65.8545 14.85 65.8545 12.177C65.8545 9.504 67.447 8.046 69.31 8.046C71.173 8.046 72.766 9.504 72.766 12.177C72.766 14.85 71.173 16.335 69.31 16.335Z" fill="#FFFFFF" transform="translate(34 9)" />
    <path d="M0 0L5 0L5 17L0 17L0 0Z" fill="#FF7043" fill-rule="evenodd" transform="translate(17 6)" />
    <path d="M0 0L5 0L5 17L0 17L0 0Z" fill="#FF7043" fill-rule="evenodd" transform="matrix(0 1 -1 0 17 23)" />
    <path d="M0 0L5 0L5 17L0 17L0 0Z" fill="#FF7043" fill-rule="evenodd" transform="matrix(0 1 -1 0 22 6)" />
    <path d="M0 0L5 0L5 17L0 17L0 0Z" fill="#FF7043" fill-rule="evenodd" transform="matrix(-1 -0 0 -1 5 28)" />
  </g>
</svg>